<?xml version="1.0" encoding="utf-8"?>
<!-- Generator: Adobe Illustrator 19.2.1, SVG Export Plug-In . SVG Version: 6.00 Build 0)  -->
<svg version="1.1" id="Layer_1" xmlns="http://www.w3.org/2000/svg" xmlns:xlink="http://www.w3.org/1999/xlink" x="0px" y="0px"
	 viewBox="0 0 792 208.7" style="enable-background:new 0 0 792 208.7;" xml:space="preserve">
<style type="text/css">
	.st0{filter:url(#Adobe_OpacityMaskFilter);}
	.st1{clip-path:url(#SVGID_1_);fill:url(#SVGID_3_);}
	.st2{clip-path:url(#SVGID_1_);mask:url(#SVGID_2_);fill:url(#SVGID_4_);}
	.st3{fill:#595A5C;}
</style>
<g>
	<g>
		<defs>
			<path id="SVGID_6_" d="M357.6,106.5c0-5.2,3.3-11.5,7.8-14.3c12.2,14,28,23.7,42.8,34.5c-2.6,6-9.1,10.4-15.6,10.4
				C378.9,137,357.6,121.1,357.6,106.5 M387.2,60c0-7.5,3.6-15.3,11.4-15.3c7.3,0,9.4,6.8,9.4,12.2c0,8.1-3.6,16.4-10.1,21.3
				C391,73.4,387.2,68.7,387.2,60 M358.9,73.9c0,5.9,2.1,11.4,5,16.3c-15.1,6.7-27.8,17.4-27.8,35.5c0,18.4,17.2,33.8,35,33.8
				c22,0,30.6-12.2,39.4-31.4c5.4,3.7,9.4,10.1,9.4,16.8c0,15.1-10.4,20.2-21.1,20.2h-1.5v2.4c2.8,0.2,6,0.5,8.9,0.5
				c16.8,0,37.1-8.9,37.1-36.3c0-18.1-9.1-26-22.3-36.3c2.9-11.7,7.6-34.2,22.8-34.2c1.8,0,3.7,1.1,3.7,2.6c0,3.6-9.8,4.6-9.8,15.9
				c0,6.7,5.5,12.7,12,12.7c9.8,0,15.3-7,15.3-16.6c0-10.9-8.8-18.5-19.4-18.5c-18.9,0-23.6,22-27,36.4c-6.5-4.6-12.8-9.3-19.2-14.1
				c7.8-1.5,15.3-9.1,15.3-18.1c0-11.4-8.8-20.8-22.3-20.8C375.4,40.8,358.9,54.7,358.9,73.9"/>
		</defs>
		<clipPath id="SVGID_1_">
			<use xlink:href="#SVGID_6_"  style="overflow:visible;"/>
		</clipPath>
		<defs>
			<filter id="Adobe_OpacityMaskFilter" filterUnits="userSpaceOnUse" x="336.2" y="40.8" width="129" height="127.2">
				<feColorMatrix  type="matrix" values="1 0 0 0 0  0 1 0 0 0  0 0 1 0 0  0 0 0 1 0"/>
			</filter>
		</defs>
		<mask maskUnits="userSpaceOnUse" x="336.2" y="40.8" width="129" height="127.2" id="SVGID_2_">
			<g class="st0">
				
					<linearGradient id="SVGID_3_" gradientUnits="userSpaceOnUse" x1="-223.7457" y1="1334.0822" x2="-222.9862" y2="1334.0822" gradientTransform="matrix(-7.799999e-06 -178.9951 -178.9951 7.799999e-06 239194.8438 -39873.293)">
					<stop  offset="0" style="stop-color:#000000"/>
					<stop  offset="1" style="stop-color:#FFFFFF"/>
				</linearGradient>
				<rect x="336.2" y="40.8" class="st1" width="129" height="127.2"/>
			</g>
		</mask>
		
			<linearGradient id="SVGID_4_" gradientUnits="userSpaceOnUse" x1="-223.7457" y1="1334.0822" x2="-222.9862" y2="1334.0822" gradientTransform="matrix(-7.800000e-06 -178.9951 -178.9951 7.800000e-06 239194.8438 -39873.293)">
			<stop  offset="0" style="stop-color:#FAAF42"/>
			<stop  offset="1" style="stop-color:#FAAF42"/>
		</linearGradient>
		<rect x="336.2" y="40.8" class="st2" width="129" height="127.2"/>
	</g>
	<path class="st3" d="M57.5,141c-4,0-7.7-0.7-11.2-2.2c-3.5-1.5-6.4-3.5-8.9-6c-2.5-2.6-4.5-5.6-5.9-9c-1.4-3.5-2.1-7.2-2.1-11.1
		v-0.2c0-4,0.7-7.7,2.1-11.1c1.4-3.4,3.4-6.5,5.9-9.1c2.5-2.6,5.5-4.7,9-6.2c3.5-1.5,7.3-2.3,11.5-2.3c2.5,0,4.8,0.2,6.9,0.6
		c2.1,0.4,4,1,5.7,1.8c1.7,0.8,3.3,1.7,4.8,2.7c1.5,1.1,2.9,2.2,4.2,3.5l-6.2,7.2c-2.2-2.1-4.6-3.7-7-5c-2.5-1.3-5.3-1.9-8.5-1.9
		c-2.6,0-5.1,0.5-7.3,1.5c-2.2,1-4.2,2.4-5.8,4.2c-1.6,1.8-2.9,3.8-3.8,6.2c-0.9,2.4-1.4,4.9-1.4,7.6v0.2c0,2.7,0.5,5.2,1.4,7.6
		c0.9,2.4,2.2,4.5,3.8,6.3c1.6,1.8,3.5,3.2,5.8,4.2c2.2,1,4.7,1.5,7.3,1.5c1.7,0,3.2-0.2,4.7-0.5c1.4-0.3,2.8-0.8,4-1.4
		c1.3-0.6,2.5-1.4,3.7-2.3c1.2-0.9,2.4-1.9,3.5-3l6.2,6.3c-1.4,1.5-2.9,2.8-4.5,4c-1.6,1.2-3.2,2.3-5,3.1c-1.8,0.9-3.8,1.5-5.9,2
		C62.4,140.8,60,141,57.5,141"/>
	<path class="st3" d="M90.1,84.8h24.7c3.5,0,6.6,0.5,9.2,1.5c2.7,1,4.9,2.3,6.7,4.1c1.5,1.5,2.6,3.3,3.4,5.3c0.8,2,1.2,4.2,1.2,6.6
		v0.2c0,4.5-1.2,8.2-3.7,10.9c-2.4,2.8-5.6,4.7-9.5,5.8l14.9,21h-11.5L112,120.8h-0.2h-12v19.3h-9.7V84.8z M114,112.1
		c3.5,0,6.2-0.8,8.3-2.5c2.1-1.6,3.1-3.9,3.1-6.7v-0.2c0-3-1-5.2-3-6.8c-2-1.5-4.8-2.3-8.5-2.3H99.8v18.4H114z"/>
	<polygon class="st3" points="147.2,84.8 188.3,84.8 188.3,93.5 157,93.5 157,107.8 184.7,107.8 184.7,116.5 157,116.5 157,131.4 
		188.6,131.4 188.6,140.1 147.2,140.1 	"/>
	<path class="st3" d="M219.8,84.4h9l24.3,55.7h-10.3l-5.6-13.4h-26.2l-5.7,13.4h-10L219.8,84.4z M233.7,118l-9.6-22.1l-9.5,22.1
		H233.7z"/>
	<polygon class="st3" points="269.1,93.7 251.6,93.7 251.6,84.8 296.4,84.8 296.4,93.7 278.8,93.7 278.8,140.1 269.1,140.1 	"/>
	<polygon class="st3" points="306.7,84.8 347.7,84.8 347.7,93.5 316.4,93.5 316.4,107.8 344.2,107.8 344.2,116.5 316.4,116.5 
		316.4,131.4 348.1,131.4 348.1,140.1 306.7,140.1 	"/>
	<rect x="448.8" y="84.8" class="st3" width="9.7" height="55.3"/>
	<polygon class="st3" points="473.3,84.8 482.3,84.8 511.9,123 511.9,84.8 521.5,84.8 521.5,140.1 513.3,140.1 482.8,100.7 
		482.8,140.1 473.3,140.1 	"/>
	<path class="st3" d="M555.1,140.9c-4.3,0-8.4-0.7-12.3-2.2c-3.9-1.5-7.5-3.7-10.8-6.7l5.8-7c2.7,2.3,5.4,4.1,8.1,5.3
		c2.7,1.2,5.8,1.9,9.3,1.9c3,0,5.4-0.6,7.2-1.9c1.8-1.3,2.6-2.9,2.6-5.1v-0.2c0-1-0.2-1.9-0.5-2.6c-0.3-0.8-1-1.5-1.9-2.2
		c-0.9-0.7-2.2-1.3-3.8-1.9c-1.6-0.6-3.7-1.2-6.3-1.7c-3-0.7-5.6-1.5-7.9-2.4c-2.3-0.8-4.2-1.9-5.8-3.1c-1.6-1.2-2.7-2.7-3.6-4.5
		c-0.8-1.8-1.2-3.9-1.2-6.5V100c0-2.4,0.5-4.5,1.4-6.5c0.9-2,2.3-3.7,3.9-5c1.7-1.4,3.6-2.5,6-3.3c2.3-0.8,4.8-1.2,7.6-1.2
		c4.1,0,7.7,0.6,10.9,1.8c3.2,1.2,6.3,2.9,9.1,5.2l-5.2,7.4c-2.5-1.8-5-3.3-7.5-4.2c-2.5-1-5-1.5-7.5-1.5c-2.8,0-5.1,0.6-6.6,1.9
		c-1.6,1.3-2.4,2.8-2.4,4.7v0.2c0,1.1,0.2,2,0.6,2.8c0.4,0.8,1,1.6,2,2.2c1,0.7,2.3,1.3,4,1.9c1.7,0.6,3.9,1.2,6.5,1.8
		c2.9,0.7,5.5,1.5,7.7,2.4c2.2,0.9,4.1,2,5.5,3.3c1.5,1.3,2.6,2.8,3.4,4.5c0.8,1.7,1.1,3.7,1.1,6v0.2c0,2.6-0.5,4.9-1.5,6.9
		c-1,2.1-2.3,3.8-4.1,5.2c-1.7,1.4-3.8,2.5-6.2,3.2C560.6,140.5,558,140.9,555.1,140.9"/>
	<path class="st3" d="M586.3,84.8h21.8c3.2,0,6.1,0.4,8.7,1.3c2.6,0.9,4.8,2.1,6.6,3.8c1.8,1.6,3.2,3.6,4.2,5.8
		c1,2.3,1.5,4.8,1.5,7.6v0.2c0,3.1-0.6,5.8-1.7,8.2c-1.2,2.3-2.7,4.3-4.7,5.9c-2,1.6-4.3,2.8-7,3.6c-2.7,0.8-5.6,1.2-8.6,1.2h-11
		v17.8h-9.7V84.8z M607.3,113.6c3.7,0,6.6-0.9,8.7-2.8c2.1-1.8,3.2-4.2,3.2-7.1v-0.2c0-3.3-1.1-5.7-3.2-7.4
		c-2.2-1.7-5.1-2.5-8.7-2.5H596v19.9H607.3z"/>
	<rect x="639.6" y="84.8" class="st3" width="9.7" height="55.3"/>
	<path class="st3" d="M664.1,84.8h24.7c3.5,0,6.6,0.5,9.2,1.5c2.7,1,4.9,2.3,6.7,4.1c1.5,1.5,2.6,3.3,3.4,5.3c0.8,2,1.2,4.2,1.2,6.6
		v0.2c0,4.5-1.2,8.2-3.7,10.9c-2.4,2.8-5.6,4.7-9.5,5.8l14.9,21h-11.5L686,120.8h-0.2h-12v19.3h-9.7V84.8z M688.1,112.1
		c3.5,0,6.2-0.8,8.3-2.5c2.1-1.6,3.1-3.9,3.1-6.7v-0.2c0-3-1-5.2-3-6.8c-2-1.5-4.8-2.3-8.5-2.3h-14.1v18.4H688.1z"/>
	<polygon class="st3" points="721.3,84.8 762.3,84.8 762.3,93.5 731,93.5 731,107.8 758.7,107.8 758.7,116.5 731,116.5 731,131.4 
		762.7,131.4 762.7,140.1 721.3,140.1 	"/>
</g>
</svg>
