<?xml version="1.0" encoding="utf-8"?>
<!-- Generator: Adobe Illustrator 19.2.1, SVG Export Plug-In . SVG Version: 6.00 Build 0)  -->
<svg version="1.1" id="Layer_1" xmlns="http://www.w3.org/2000/svg" xmlns:xlink="http://www.w3.org/1999/xlink" x="0px" y="0px"
	 viewBox="0 0 787 89.1" style="enable-background:new 0 0 787 89.1;" xml:space="preserve">
<style type="text/css">
	.st0{fill:#231F20;}
</style>
<g>
	<polygon class="st0" points="493.2,65.8 517.2,65.8 517.2,60 499.5,60 499.5,44.6 516.7,44.6 516.7,38.8 499.5,38.8 499.5,27.7 
		517.2,27.7 517.2,21.9 493.2,21.9 	"/>
	<polygon class="st0" points="457,21.9 450.7,21.9 450.7,65.8 470.1,65.8 470.1,60 457,60 	"/>
	<path class="st0" d="M360.5,21c-12.7,0-23,10.2-23,22.8c0,12.8,10.1,22.8,23,22.8c12.9,0,23-10,23-22.8
		C383.5,31.2,373.2,21,360.5,21 M360.5,60.8c-9.2,0-16.7-7.6-16.7-16.9c0-9.7,7.2-16.9,16.7-16.9c9.5,0,16.7,7.3,16.7,16.9
		C377.2,53.2,369.7,60.8,360.5,60.8"/>
	<path class="st0" d="M303.3,21C290.2,21,280,31.1,280,44.1c0,12.5,10.2,22.6,22.8,22.6c3.9,0,8.2-1.2,11.5-3.1l0.2-0.1v-7.6
		l-0.8,0.7c-3.1,2.8-7.1,4.3-11.1,4.3c-9.1,0-16.4-7.6-16.4-17c0-9.4,7.4-17.1,16.5-17.1c4.1,0,8.1,1.5,11,4.1l0.8,0.7v-7.5
		l-0.2-0.1C311.2,22,307.3,21,303.3,21"/>
	<polygon class="st0" points="414.6,21.9 408.3,21.9 408.3,65.8 427.6,65.8 427.6,60 414.6,60 	"/>
	<rect x="648" y="21.9" class="st0" width="6.3" height="43.9"/>
	<polygon class="st0" points="762.9,27.7 762.9,21.9 738.9,21.9 738.9,65.8 762.9,65.8 762.9,60 745.2,60 745.2,44.6 762.4,44.6 
		762.4,38.8 745.2,38.8 745.2,27.7 	"/>
	<polygon class="st0" points="696.6,52.9 684.2,22.2 684,21.9 677.2,21.9 696.6,68.8 715.6,22.5 715.9,21.9 709,21.9 	"/>
	<path class="st0" d="M113.8,66.7h6.8L99.3,20.4L78.1,66.7h6.8l4.9-10.8h19.1L113.8,66.7z M92.4,50.1l6.9-15.8l7,15.8H92.4z"/>
	<path class="st0" d="M33.4,22.8H24v43.9h9.2c15.3,0,24.7-8.5,24.7-22.2C57.9,31.3,48.3,22.8,33.4,22.8 M31.7,60.9h-1.4V28.6h1.4
		c9.1,0,19.9,2.8,19.9,16.1C51.7,52.1,48.2,60.9,31.7,60.9"/>
	<polygon class="st0" points="153.7,66.7 153.7,47.7 168,22.8 160.8,22.8 150.5,40.7 140.4,23 140.3,22.8 133.1,22.8 147.4,47.7 
		147.4,66.7 	"/>
	<polygon class="st0" points="228.8,66.7 228.8,22.8 218.4,22.8 214.9,28.6 222.7,28.6 222.7,66.7 	"/>
	<path class="st0" d="M564.4,21c-13.1,0-23.3,10.1-23.3,23.1c0,12.5,10.2,22.6,22.8,22.6c3.9,0,8.2-1.2,11.5-3.1l0.2-0.1v-7.6
		l-0.8,0.7c-3.1,2.8-7.1,4.3-11.1,4.3c-9.1,0-16.4-7.6-16.4-17c0-9.4,7.4-17.1,16.5-17.1c4.1,0,8.1,1.5,11,4.1l0.8,0.7v-7.5
		l-0.2-0.1C572.3,22,568.4,21,564.4,21"/>
	<polygon class="st0" points="597.7,27.7 607.9,27.7 607.9,65.8 614.1,65.8 614.1,27.7 624.3,27.7 624.3,21.9 597.7,21.9 	"/>
</g>
</svg>
