<?xml version="1.0" encoding="utf-8"?>
<!-- Generator: Adobe Illustrator 19.2.1, SVG Export Plug-In . SVG Version: 6.00 Build 0)  -->
<svg version="1.1" id="Layer_1" xmlns="http://www.w3.org/2000/svg" xmlns:xlink="http://www.w3.org/1999/xlink" x="0px" y="0px"
	 viewBox="0 0 32 32" style="enable-background:new 0 0 32 32;" xml:space="preserve">
<style type="text/css">
	.st0{display:none;fill:#58595B;}
	.st1{fill:#58595B;}
</style>
<path class="st0" d="M30.7,0H1.3C0.6,0,0,0.6,0,1.3v29.3C0,31.4,0.6,32,1.3,32H17V20h-4v-5h4v-4c0-4.1,2.6-6.2,6.3-6.2
	C25.1,4.8,26.6,5,27,5v4.3l-2.6,0c-2,0-2.5,1-2.5,2.3V15h5l-1,5h-4l0.1,12h8.6c0.7,0,1.3-0.6,1.3-1.3V1.3C32,0.6,31.4,0,30.7,0"/>
<path class="st0" d="M32,6.1c-1.2,0.5-2.4,0.9-3.8,1c1.4-0.8,2.4-2.1,2.9-3.6c-1.3,0.8-2.7,1.3-4.2,1.6c-1.2-1.3-2.9-2.1-4.8-2.1
	c-3.6,0-6.6,2.9-6.6,6.6c0,0.5,0.1,1,0.2,1.5C10.3,10.8,5.5,8.2,2.2,4.3c-0.6,1-0.9,2.1-0.9,3.3c0,2.3,1.2,4.3,2.9,5.5
	c-1.1,0-2.1-0.3-3-0.8c0,0,0,0.1,0,0.1c0,3.2,2.3,5.8,5.3,6.4c-0.6,0.2-1.1,0.2-1.7,0.2c-0.4,0-0.8,0-1.2-0.1
	c0.8,2.6,3.3,4.5,6.1,4.6c-2.2,1.8-5.1,2.8-8.2,2.8c-0.5,0-1.1,0-1.6-0.1c2.9,1.9,6.4,2.9,10.1,2.9c12.1,0,18.7-10,18.7-18.7
	c0-0.3,0-0.6,0-0.9C30,8.6,31.1,7.4,32,6.1"/>
<path class="st0" d="M28.2,0H3.8C1.7,0,0,1.7,0,3.8v24.4C0,30.3,1.7,32,3.8,32h24.4c2.1,0,3.8-1.7,3.8-3.8V3.8C32,1.7,30.3,0,28.2,0
	 M24,4h3c0.6,0,1,0.4,1,1v3c0,0.6-0.4,1-1,1h-3c-0.6,0-1-0.4-1-1V5C23,4.4,23.4,4,24,4 M16,9.9c3.4,0,6.2,2.7,6.2,6.1
	s-2.8,6.1-6.2,6.1c-3.4,0-6.2-2.7-6.2-6.1S12.6,9.9,16,9.9 M28,29H4c-0.6,0-1-0.4-1-1V13h4c-0.5,0.8-0.7,2.1-0.7,3
	c0,5.4,4.4,9.7,9.7,9.7c5.4,0,9.7-4.4,9.7-9.7c0-0.9-0.1-2.3-0.8-3h4v15C29,28.6,28.6,29,28,29"/>
<path class="st1" d="M14.7,2.6c0.3,0.2,0.5,0.4,0.9,0.7c0.3,0.3,0.6,0.7,0.9,1.1c0.3,0.4,0.5,0.9,0.7,1.5c0.2,0.6,0.3,1.2,0.3,2
	c0,1.4-0.3,2.5-1,3.4c-0.3,0.4-0.6,0.8-1,1.1c-0.4,0.3-0.8,0.7-1.2,1c-0.2,0.2-0.5,0.5-0.7,0.8c-0.2,0.3-0.4,0.7-0.4,1.1
	c0,0.4,0.1,0.7,0.4,1c0.2,0.3,0.4,0.5,0.6,0.7l1.4,1.1c0.9,0.7,1.6,1.4,2.2,2.2c0.6,0.8,0.9,1.9,0.9,3.2c0,1.9-0.9,3.6-2.6,5
	c-1.8,1.5-4.4,2.3-7.8,2.3c-2.8,0-4.9-0.6-6.3-1.7C0.7,28.1,0,26.8,0,25.3c0-0.7,0.2-1.5,0.7-2.4c0.4-0.9,1.3-1.7,2.4-2.3
	c1.3-0.7,2.7-1.2,4.1-1.4c1.4-0.2,2.6-0.3,3.6-0.3c-0.3-0.4-0.6-0.8-0.8-1.2c-0.3-0.4-0.4-0.9-0.4-1.5c0-0.3,0.1-0.6,0.2-0.9
	c0.1-0.2,0.2-0.5,0.2-0.7c-0.5,0.1-0.9,0.1-1.3,0.1c-2.2,0-3.8-0.7-4.9-2C2.6,11.5,2,10.2,2,8.6c0-1.9,0.8-3.7,2.5-5.2
	c1.1-0.9,2.3-1.5,3.6-1.8c1.2-0.2,2.4-0.4,3.4-0.4h8.1l-2.5,1.4H14.7z M16.2,25.1c0-1-0.3-1.9-1-2.6c-0.7-0.7-1.8-1.6-3.3-2.6
	c-0.3,0-0.6,0-0.9,0c-0.2,0-0.7,0-1.6,0.1c-0.8,0.1-1.7,0.3-2.6,0.6c-0.2,0.1-0.5,0.2-0.9,0.3c-0.4,0.2-0.8,0.4-1.1,0.7
	c-0.4,0.3-0.7,0.7-0.9,1.2c-0.3,0.5-0.4,1.1-0.4,1.8c0,1.4,0.6,2.5,1.9,3.4c1.2,0.9,2.9,1.3,5,1.4c1.9,0,3.4-0.4,4.4-1.2
	C15.7,27.3,16.2,26.3,16.2,25.1 M10.6,13.6c1.1,0,2-0.4,2.7-1.1c0.3-0.5,0.6-1,0.7-1.5C14,10.5,14,10,14,9.7c0-1.5-0.4-3.1-1.2-4.7
	c-0.4-0.8-0.9-1.4-1.5-1.8c-0.6-0.4-1.4-0.7-2.2-0.7c-1.1,0-2,0.5-2.7,1.3C5.7,4.6,5.4,5.6,5.4,6.7c0,1.4,0.4,2.9,1.3,4.4
	c0.4,0.7,1,1.3,1.6,1.8C9,13.4,9.7,13.6,10.6,13.6"/>
<polygon class="st1" points="32,15.1 28,15.1 28,11.1 26,11.1 26,15.1 22,15.1 22,17.1 26,17.1 26,21.1 28,21.1 28,17.1 32,17.1 "/>
</svg>
