<?xml version="1.0" encoding="utf-8"?>
<!-- Generator: Adobe Illustrator 19.2.1, SVG Export Plug-In . SVG Version: 6.00 Build 0)  -->
<svg version="1.1" id="Layer_1" xmlns="http://www.w3.org/2000/svg" xmlns:xlink="http://www.w3.org/1999/xlink" x="0px" y="0px"
	 viewBox="0 0 129.3 128.2" style="enable-background:new 0 0 129.3 128.2;" xml:space="preserve">
<style type="text/css">
	.st0{fill:#FBB040;}
</style>
<g>
	<g>
		<polygon class="st0" points="65.4,76.6 65.4,65.9 65.4,62.4 65.4,55 65.4,21.5 57.1,29.8 58.1,30.9 63.9,25.1 63.9,55.5 
			63.9,62.4 63.9,65.9 63.9,77.5 63.9,102.4 56.8,102.4 56.8,104.2 72.6,104.2 72.6,102.4 65.4,102.4 		"/>
		<polygon class="st0" points="31.1,93.3 60.2,65.9 62,64.1 31.1,34.9 30.1,36 59.9,64.2 30.1,92.2 		"/>
		<polygon class="st0" points="99,93.3 69.9,65.9 68.2,64.1 99,34.9 100.1,36 70.3,64.2 100.1,92.2 		"/>
		<path class="st0" d="M64.6,11c-29.3,0-53.1,23.8-53.1,53.1c0,29.3,23.8,53.1,53.1,53.1c29.3,0,53.1-23.8,53.1-53.1
			C117.8,34.8,93.9,11,64.6,11 M64.6,115.7C36.2,115.7,13,92.6,13,64.1c0-28.5,23.2-51.6,51.6-51.6c28.5,0,51.6,23.2,51.6,51.6
			C116.2,92.6,93.1,115.7,64.6,115.7"/>
	</g>
</g>
</svg>
